<?xml version="1.0" encoding="iso-8859-1"?>
<!-- Generator: Adobe Illustrator 19.0.0, SVG Export Plug-In . SVG Version: 6.00 Build 0)  -->
<svg version="1.1" id="Layer_1" xmlns="http://www.w3.org/2000/svg" xmlns:xlink="http://www.w3.org/1999/xlink" x="0px" y="0px"
	 viewBox="0 0 512 512" style="enable-background:new 0 0 512 512;" xml:space="preserve">
<g>
	<g>
		<g>
			<path d="M501.333,21.333H10.667C4.776,21.333,0,26.109,0,32v117.333C0,155.224,4.776,160,10.667,160h490.667
				c5.891,0,10.667-4.776,10.667-10.667V32C512,26.109,507.224,21.333,501.333,21.333z M490.667,138.667H21.333v-96h469.333V138.667
				z"/>
			<path d="M501.333,181.333H10.667C4.776,181.333,0,186.109,0,192v128c0,5.891,4.776,10.667,10.667,10.667h490.667
				c5.891,0,10.667-4.776,10.667-10.667V192C512,186.109,507.224,181.333,501.333,181.333z M490.667,309.333H21.333V202.667h469.333
				V309.333z"/>
			<path d="M501.333,352H10.667C4.776,352,0,356.776,0,362.667V480c0,5.891,4.776,10.667,10.667,10.667h490.667
				c5.891,0,10.667-4.776,10.667-10.667V362.667C512,356.776,507.224,352,501.333,352z M490.667,469.333H21.333v-96h469.333V469.333
				z"/>
		</g>
	</g>
</g>
</svg>